<?xml version="1.0" standalone="no"?>
<!DOCTYPE svg PUBLIC "-//W3C//DTD SVG 20010904//EN"
 "http://www.w3.org/TR/2001/REC-SVG-20010904/DTD/svg10.dtd">
<svg version="1.0" xmlns="http://www.w3.org/2000/svg"
 width="410.000000pt" height="432.000000pt" viewBox="0 0 410.000000 432.000000"
 preserveAspectRatio="xMidYMid meet">

<g transform="translate(0.000000,432.000000) scale(0.100000,-0.100000)"
fill="#000000" stroke="none">
<path d="M0 2160 l0 -2160 2050 0 2050 0 0 2160 0 2160 -2050 0 -2050 0 0
-2160z m2505 1871 c92 -41 148 -101 185 -200 l20 -51 -335 0 c-261 0 -335 3
-335 13 0 27 51 118 89 159 40 44 107 84 165 99 49 13 161 2 211 -20z m342 -5
c87 -41 156 -123 183 -217 l9 -29 -63 0 -62 0 -13 51 c-16 60 -68 142 -119
186 -36 32 -36 33 -12 33 14 0 48 -11 77 -24z m263 -436 l0 -70 -60 0 -60 0 0
70 0 70 60 0 60 0 0 -70z m-2 -739 l-3 -539 -30 -43 c-32 -46 -78 -74 -138
-84 l-37 -7 34 51 c19 27 39 73 45 101 7 33 11 229 11 555 l0 505 60 0 61 0
-3 -539z m270 337 l3 -68 -66 0 -65 0 0 70 0 71 63 -3 62 -3 3 -67z m-538
-133 l0 -75 -470 0 -470 0 0 75 0 75 470 0 470 0 0 -75z m-1330 -270 l0 -205
-41 0 c-41 0 -78 14 -91 34 -4 6 -8 84 -8 174 0 149 2 164 20 182 15 15 33 20
70 20 l50 0 0 -205z m1846 184 c16 -18 19 -40 22 -161 2 -77 1 -151 -2 -164
-11 -44 -41 -64 -96 -64 l-50 0 0 205 0 205 53 0 c42 0 58 -5 73 -21z m-2898
-372 c51 -51 100 -104 108 -119 11 -22 14 -91 14 -363 l0 -335 -75 0 -75 0 0
85 c0 84 0 85 -30 100 -29 15 -30 18 -30 89 0 68 2 74 25 84 32 15 41 38 39
104 -1 29 -2 82 -3 117 l-1 64 -90 91 c-72 74 -90 98 -90 122 0 37 9 51 40 62
40 15 68 -2 168 -101z m2277 -562 c-43 -35 -141 -82 -210 -100 -73 -19 -232
-20 -300 -1 -73 19 -148 54 -202 92 l-48 34 395 0 395 -1 -30 -24z m-603 -199
c173 -65 358 -56 561 29 18 7 18 -1 15 -181 l-3 -189 -34 -63 c-38 -70 -89
-119 -160 -154 -65 -32 -205 -33 -273 -1 -71 33 -141 103 -174 176 -26 59 -28
71 -32 241 -4 172 -4 179 14 173 11 -3 49 -17 86 -31z m-1492 -246 l0 -70
-135 0 -135 0 0 70 0 70 135 0 135 0 0 -70z m1270 -428 c0 -424 0 -428 -22
-472 -14 -26 -41 -57 -66 -75 -38 -26 -52 -30 -111 -29 -92 0 -149 33 -185
106 l-26 52 0 423 0 423 205 0 205 0 0 -428z m1330 -2 c0 -476 1 -471 -63
-527 -81 -71 -197 -69 -278 4 -67 60 -69 79 -69 545 l0 408 205 0 205 0 0
-430z m237 254 c56 -46 119 -142 143 -221 19 -61 20 -93 20 -518 l0 -454 -26
-20 c-18 -14 -41 -21 -71 -21 -40 0 -44 2 -37 18 13 26 17 854 4 936 -13 86
-41 154 -97 233 -24 34 -43 73 -43 88 l0 26 33 -17 c17 -9 51 -32 74 -50z
m-2767 -94 l0 -70 -205 0 -205 0 0 70 0 70 205 0 205 0 0 -70z m0 -587 c0
-379 -1 -399 -21 -439 -68 -142 -281 -148 -361 -10 -23 41 -23 42 -26 444 l-3
402 205 0 206 0 0 -397z m2664 -59 c3 -9 6 -123 6 -255 l0 -239 -65 0 -65 0 0
170 0 171 39 49 c22 28 45 66 52 85 14 38 24 44 33 19z m-664 -419 l0 -75
-340 0 -340 0 0 68 c0 38 3 72 7 75 3 4 156 7 340 7 l333 0 0 -75z"/>
<path d="M1682 909 c-29 -11 -45 -54 -39 -108 6 -51 25 -73 63 -73 40 0 64 34
64 91 0 72 -36 109 -88 90z"/>
<path d="M3020 913 c-29 -10 -40 -37 -40 -94 0 -66 16 -89 59 -89 42 0 61 28
61 91 0 30 -4 59 -8 65 -7 10 -47 35 -54 33 -2 0 -10 -3 -18 -6z"/>
</g>
</svg>
